<?xml version="1.0" standalone="no"?><!DOCTYPE svg PUBLIC "-//W3C//DTD SVG 1.1//EN" "http://www.w3.org/Graphics/SVG/1.1/DTD/svg11.dtd"><svg t="1656753304550" class="icon" viewBox="0 0 1344 1024" version="1.1" xmlns="http://www.w3.org/2000/svg" p-id="3228" xmlns:xlink="http://www.w3.org/1999/xlink" width="262.5" height="200"><defs><style type="text/css">@font-face { font-family: feedback-iconfont; src: url("//at.alicdn.com/t/font_1031158_u69w8yhxdu.woff2?t=1630033759944") format("woff2"), url("//at.alicdn.com/t/font_1031158_u69w8yhxdu.woff?t=1630033759944") format("woff"), url("//at.alicdn.com/t/font_1031158_u69w8yhxdu.ttf?t=1630033759944") format("truetype"); }
</style></defs><path d="M 1251.33 182.799 h -325.577 a 39.5118 39.5118 0 0 0 0 79.0236 h 325.577 a 39.5118 39.5118 0 0 0 0 -79.0236 Z M 1138.33 340.845 h -212.573 a 39.5118 39.5118 0 0 0 0 79.0236 H 1138.33 a 39.5118 39.5118 0 0 0 0 -79.0236 Z M 1033.23 502.054 h -107.472 a 39.5118 39.5118 0 0 0 0 79.0236 h 106.682 a 39.5118 39.5118 0 0 0 0 -79.0236 Z M 654.706 512.327 a 265.52 265.52 0 1 0 -312.143 0 A 467.03 467.03 0 0 0 32 952.488 a 39.5118 39.5118 0 0 0 79.0236 0 a 388.006 388.006 0 0 1 775.222 0 a 39.5118 39.5118 0 0 0 79.0236 0 a 467.03 467.03 0 0 0 -310.563 -440.162 Z m -342.172 -213.364 a 186.496 186.496 0 1 1 186.496 186.496 a 186.496 186.496 0 0 1 -186.496 -186.496 Z" fill="#666666" p-id="3229"></path></svg>